<svg width="179" height="182" viewBox="0 0 179 182" fill="none" xmlns="http://www.w3.org/2000/svg">
<defs>
<linearGradient id="paint0_linear_319_2" x1="0.816406" y1="97.8574" x2="120.699" y2="97.8574" gradientUnits="userSpaceOnUse">
<stop stop-color="#EE2A7B"/>
<stop offset="1" stop-color="#FF7DB8"/>
</linearGradient>
<linearGradient id="paint1_linear_319_2" x1="44.2197" y1="72.5454" x2="170.583" y2="72.5454" gradientUnits="userSpaceOnUse">
<stop stop-color="#EE2A7B"/>
<stop offset="1" stop-color="#FF7DB8"/>
</linearGradient>
<linearGradient id="paint2_linear_319_2" x1="0" y1="0" x2="178.181" y2="0" gradientUnits="userSpaceOnUse">
<stop stop-color="#EE2A7B"/>
<stop offset="1" stop-color="#FF7DB8"/>
</linearGradient>
<linearGradient id="paint3_linear_319_2" x1="33.8594" y1="122.732" x2="163.586" y2="122.732" gradientUnits="userSpaceOnUse">
<stop stop-color="#EE2A7B"/>
<stop offset="1" stop-color="#FF7DB8"/>
</linearGradient>
<linearGradient id="paint4_linear_319_2" x1="34" y1="109" x2="148.036" y2="109" gradientUnits="userSpaceOnUse">
<stop stop-color="#EE2A7B"/>
<stop offset="1" stop-color="#FF7DB8"/>
</linearGradient>
<linearGradient id="paint5_linear_319_2" x1="44" y1="136" x2="135.229" y2="136" gradientUnits="userSpaceOnUse">
<stop stop-color="#EE2A7B"/>
<stop offset="1" stop-color="#FF7DB8"/>
</linearGradient>
<clipPath id="clip0_319_2">
<rect width="178.181" height="181.103" fill="white"/>
</clipPath>
</defs>
<g clip-path="url(#clip0_319_2)">
<path d="M21.7016 148.404C23.4774 150.487 25.3507 152.485 27.3154 154.392C33.9377 160.91 41.8349 166.388 50.3068 170.532C53.4283 171.993 56.3075 173.508 59.6809 174.811C60.5238 175.135 61.3849 175.482 62.29 175.794C63.2028 176.083 64.1491 176.372 65.1386 176.659C66.1222 176.966 67.1711 177.185 68.2678 177.412C69.3654 177.632 70.5052 177.884 71.7293 178.009C65.6568 176.729 59.738 174.806 54.0729 172.272C48.3725 169.701 42.9561 166.541 37.9117 162.845C27.8086 155.444 19.1672 145.942 12.8552 135.079C12.5947 134.754 12.1991 134.136 11.725 133.347L10.9626 132.056L10.1934 130.571C9.68195 129.54 9.0929 128.494 8.64177 127.481C8.23724 126.594 7.81379 125.717 7.3717 124.849C9.33331 129.735 11.5976 134.008 14.1329 138.072C15.3007 139.936 16.5368 141.756 17.8387 143.529C17.6548 143.281 17.4633 143.04 17.2803 142.79C18.6754 144.712 20.1452 146.578 21.6863 148.385L21.7016 148.404ZM1.27903 101.569L0.816406 97.8574C1.06161 100.123 1.34608 102.654 1.86617 105.189L1.55297 103.389C1.43736 102.786 1.34597 102.179 1.27903 101.569ZM82.1925 177.747C88.5639 178.392 95.2456 178.199 101.79 177.164C108.339 176.132 114.744 174.303 120.699 171.945C109.732 176.258 98.0922 178.176 86.7057 177.855C85.1818 177.831 83.68 177.855 82.1925 177.747Z" fill="url(#paint0_linear_319_2)"/>
<path d="M44.4678 164.713L44.2197 164.555C44.3031 164.608 44.3845 164.661 44.4678 164.713ZM53.7117 169.806C58.9617 172.249 64.4606 174.116 70.1124 175.377C60.833 173.26 52.1006 169.525 44.4678 164.713C47.3987 166.578 50.48 168.304 53.7117 169.806ZM169.536 102.577C169.629 101.063 169.819 99.4754 169.867 98.7197C170.436 93.8626 170.605 89.7152 170.581 85.5545C170.475 84.8045 170.174 83.3994 170.054 81.8017C169.907 80.2003 169.692 78.6323 169.51 77.0855C169.233 75.552 168.994 74.0339 168.692 72.5454C170.871 83.6724 170.834 94.8424 168.83 105.381C169.05 104.443 169.285 103.508 169.536 102.577Z" fill="url(#paint1_linear_319_2)"/>
<path d="M0.849917 79.9606C1.66215 73.3517 3.391 66.9094 5.03557 62.6174L4.36989 65.759C4.7808 64.8386 5.44456 62.6998 6.3497 60.4365L7.00293 58.7105L7.72417 57.0372C8.20307 55.9539 8.60536 54.9271 9.02967 54.1398C8.73945 54.8783 8.45977 55.6742 8.12262 56.473C7.79217 57.2747 7.4215 58.0889 7.06806 58.9078L8.51819 55.6426C7.05502 59.308 5.79549 63.0514 4.74536 66.8558C3.66015 71.0242 2.80195 75.4052 2.34028 79.338C2.20619 80.3188 2.15925 81.2766 2.07209 82.1904C2.00792 83.1041 1.89681 83.9758 1.88819 84.7995C1.84796 86.446 1.79241 87.8875 1.82018 89.0407C1.92076 91.3481 2.05964 92.4984 2.25982 91.8557C2.65349 90.5789 2.64582 84.0131 4.01933 75.796C4.75398 71.7004 5.80853 67.2082 7.23951 62.8071C8.65995 58.4021 10.5219 54.1312 12.45 50.3631L11.883 51.6006L11.361 52.8755L10.2921 55.4529L9.31127 58.1157L8.81224 59.4585C8.6657 59.9145 8.51724 60.3723 8.37069 60.832C7.10637 64.4784 6.16101 68.3183 5.33729 72.1889L4.80187 75.1121C4.60551 76.0834 4.52218 77.0718 4.3766 78.0497C4.07201 80.0047 3.9609 81.9739 3.79137 83.9202C3.60077 87.8223 3.56245 91.6766 3.91589 95.3623C3.90152 94.4868 3.88715 93.7091 3.8996 92.9562L4.00975 90.7006C4.05573 89.9257 4.04711 89.1039 4.1199 88.1624C4.18695 87.2208 4.24825 86.1596 4.30189 84.9039C4.67639 78.5746 5.80757 72.3086 7.56613 66.2447C9.2423 60.1549 11.2192 54.792 14.1645 49.933L14.9317 48.4714C15.4509 47.4906 15.8828 46.5232 16.4317 45.5367C17.0571 44.4543 17.6558 43.644 18.1404 42.9017C18.6394 42.1671 19.0628 41.5215 19.5475 40.8951L23.0741 36.0275C23.146 36.0188 23.0531 36.2047 22.8826 36.4805C23.464 35.6519 24.0904 34.8557 24.7589 34.0956C25.4821 33.2575 26.1842 32.3686 26.779 31.6349C26.9188 31.6282 27.0548 31.6244 27.3757 31.3945C35.6608 22.5855 45.8567 15.4066 57.3467 10.881L59.9012 9.88579L62.4873 9.02471L63.7737 8.59561L65.0763 8.23164L67.672 7.5104C69.1566 7.15314 70.6604 6.79108 72.1938 6.46543L74.528 6.0574C75.3125 5.92234 76.1008 5.77005 76.9072 5.69534C78.5106 5.50282 79.909 5.09671 80.6628 4.99709C84.8475 4.7586 89.0246 4.80649 93.9276 5.20398C94.3079 5.21069 94.8998 5.24517 95.5866 5.28252C96.2733 5.32179 97.0587 5.34095 97.8202 5.41087C98.7129 5.61201 99.6659 5.81124 100.666 6.00567C106.766 6.952 112.664 8.6435 118.276 10.8934L118.27 10.8666L120.419 11.7229L122.612 12.7362C124.117 13.3914 125.591 14.2295 127.114 15.0187C127.878 15.4086 128.603 15.8846 129.353 16.3156C130.091 16.7696 130.863 17.1719 131.576 17.668C133.02 18.6278 134.484 19.5463 135.834 20.5721C138.01 22.1424 140.119 23.8034 142.156 25.5509C142.2 25.5911 142.246 25.6285 142.29 25.6677L142.33 25.7041L143.725 26.9704L145.061 28.3027L146.397 29.636C146.839 30.0833 147.249 30.5622 147.677 31.0238C147.471 30.6886 147.478 30.5536 147.486 30.4204C146.826 29.7883 146.045 29.0402 145.274 28.3036C146.561 29.4741 147.683 30.5325 148.605 31.3964C148.96 31.8504 149.348 32.2968 149.716 32.7843L150.852 34.2842L152.059 35.8445L153.261 37.5226C155.394 40.2409 157.276 43.1488 159.063 46.1142C159.891 47.6352 160.803 49.1132 161.54 50.6868L162.702 53.0201L163.748 55.4118C164.048 55.9223 163.932 55.4328 163.969 55.3466C165.142 58.1837 166.086 61.1338 166.94 64.1068C168.573 69.4797 169.667 75.002 170.204 80.5918C170.42 81.9117 170.512 83.2469 170.702 84.5696L170.585 87.3703C170.584 88.4267 170.639 89.4832 170.594 90.5416L170.472 93.7273C170.456 94.4457 170.353 95.2301 170.292 96.0826C170.212 96.9331 170.17 97.8507 170.047 98.8181L169.653 101.875C169.526 102.947 169.282 104.049 169.094 105.2C168.159 110.256 166.777 115.218 164.964 120.029C164.732 120.82 164.555 121.452 164.397 121.806C163.797 123.243 163.156 124.635 162.537 126.006C161.844 127.341 161.209 128.676 160.5 129.94C158.305 134.103 155.758 138.069 152.886 141.797C152.564 142.218 152.264 142.645 151.941 143.04L150.985 144.195C150.353 144.941 149.787 145.687 149.188 146.334C147.99 147.629 146.984 148.83 146.041 149.734C144.96 150.862 145.057 150.915 145.805 150.371C146.33 149.983 146.844 149.58 147.345 149.162L149.378 147.329C150.121 146.68 150.832 145.948 151.518 145.259C152.196 144.564 152.875 143.931 153.397 143.358C154.452 142.218 155.145 141.514 154.997 141.827C153.295 145.031 150.196 148.983 145.665 153.354C143.354 155.487 140.753 157.805 137.678 160.04C136.178 161.209 134.51 162.279 132.81 163.448C131.054 164.523 129.259 165.701 127.296 166.747C123.001 169.086 130.519 165.335 130.722 165.299C129.997 165.87 129.237 166.395 128.445 166.87C127.03 167.623 125.627 168.4 124.16 169.047C123.303 169.441 122.461 169.866 121.594 170.234L118.98 171.308L120.363 170.764C123.191 169.641 125.833 168.317 128.219 167.008C127.323 167.55 126.342 168.177 125.267 168.743C124.115 169.339 122.923 169.991 121.726 170.572L118.254 172.187C130.675 167.675 142.09 160.207 151.126 150.473C155.649 145.621 159.684 140.291 162.973 134.525C166.282 128.77 168.945 122.667 170.911 116.327C167.89 125.838 163.181 134.575 157.52 141.963C167.811 128.068 173.946 111.032 174.76 93.4629C174.759 94.4313 174.663 95.3958 174.599 96.3603C174.519 97.3248 174.481 98.2932 174.368 99.2548C174.122 101.175 173.946 103.106 173.576 105.01C172.978 108.842 172.009 112.607 170.911 116.327C173.078 109.602 174.372 102.511 174.881 95.3805C175.412 88.2438 174.969 81.064 173.869 74.1064C175.76 83.3225 176.073 93.7646 174.462 104.084C175.594 97.4283 175.881 90.5675 175.446 83.765C175.349 81.1665 175.042 78.5861 174.79 76.1973C174.429 73.8258 174.156 71.6362 173.807 69.8652C175.191 76.4033 175.737 81.9797 176.003 87.2362C175.747 75.7644 173.371 64.1413 168.704 53.2231C171.251 59.153 173.342 65.532 174.619 72.0902C175.902 78.6417 176.436 85.3445 176.132 91.7925C176.118 91.0377 176.149 90.2839 176.105 89.5263L176.003 87.2362C176.278 97.6285 174.677 107.929 171.505 117.615C169.913 122.458 167.947 127.164 165.567 131.641C163.191 136.112 160.449 140.379 157.368 144.396C160.886 140.287 164.6 134.479 167.565 128.099C170.516 121.705 172.706 114.791 174.213 108.752C171.996 119.596 167.597 130.297 161.214 139.853C154.849 149.417 146.511 157.825 136.864 164.279C127.228 170.753 116.296 175.234 105.077 177.447C99.506 178.553 93.8437 179.134 88.1645 179.18C82.5887 179.21 77.0221 178.724 71.5358 177.729L74.414 178.276C75.3738 178.458 76.3469 178.558 77.3124 178.702C79.2434 179.012 81.1963 179.129 83.1426 179.308C87.0438 179.528 90.9661 179.601 94.8759 179.303C98.7924 179.096 102.684 178.511 106.557 177.798C108.479 177.361 110.423 177.004 112.321 176.443C113.273 176.177 114.236 175.944 115.182 175.648L118.012 174.731C116.583 175.173 115.079 175.759 113.473 176.19L111.46 176.781C115.684 175.655 119.817 174.216 123.826 172.475C125.66 171.675 127.465 170.811 129.238 169.884C125.916 171.647 122.489 173.205 118.976 174.551C112.279 177.05 105.319 178.78 98.2302 179.706C97.167 179.874 96.1977 179.927 95.3289 180.018L93.0033 180.248C91.6346 180.356 90.6241 180.405 89.9173 180.482C88.5026 180.623 88.3014 180.754 88.8646 180.863C89.4269 180.971 90.7525 181.057 92.3827 181.103C94.0081 181.094 95.9362 181.006 97.6899 180.846C115.311 179.039 131.489 172.124 144.454 161.771C157.428 151.416 167.364 137.66 172.902 122.053C173.25 121.147 173.517 120.212 173.807 119.285C174.087 118.355 174.398 117.434 174.651 116.496C175.122 114.609 175.678 112.744 176.038 110.828L176.631 107.969L177.098 105.084L177.329 103.641L177.493 102.188L177.821 99.2817C178.489 91.5099 178.225 83.6549 177.043 75.9464C176.411 71.5845 175.3 66.4056 173.868 61.7927L172.766 58.4557C172.383 57.3954 171.976 56.3954 171.614 55.4549L171.081 54.0995L170.534 52.8822L169.594 50.8478C166.592 44.757 162.82 38.9479 158.405 33.5448C153.994 28.1399 148.926 23.1353 143.213 18.7772L141.064 17.146L138.835 15.6059L137.718 14.8339L136.566 14.1098L134.251 12.6654C131.095 10.8417 127.862 9.0841 124.454 7.6263C121.082 6.09571 117.552 4.85342 113.959 3.74235C112.144 3.24429 110.338 2.68876 108.477 2.30659C107.55 2.1064 106.63 1.86312 105.692 1.6955L102.873 1.19648C96.1297 0.0097436 89.1156 -0.272812 82.1082 0.253987C75.1046 0.795153 68.0714 2.1246 61.3274 4.41953L58.8036 5.29402C57.9597 5.57849 57.1465 5.94725 56.3161 6.27003C55.4943 6.61389 54.6543 6.91464 53.8478 7.29394L51.4226 8.41746C50.6066 8.77759 49.8183 9.19137 49.0319 9.60994L46.6671 10.8522L44.3664 12.2047C43.6001 12.6568 42.8281 13.0983 42.0944 13.6012L39.8685 15.0647C39.1195 15.5407 38.426 16.0972 37.7029 16.6087C36.9931 17.1393 36.2566 17.6336 35.5708 18.1929L33.5047 19.8567C32.8065 20.3978 32.1475 20.985 31.4905 21.5731L29.5145 23.3259L27.6266 25.1639C26.9983 25.776 26.3633 26.3813 25.778 27.0326C20.9593 32.1071 16.7257 37.6433 13.2632 43.5013C9.86781 49.248 7.08542 55.3354 4.96182 61.6634C0.771376 74.0384 -0.430683 86.5887 0.128681 97.9244C0.00799642 93.258 -0.0121177 86.5657 0.849917 79.9606ZM136.028 166.591C138.939 164.71 141.742 162.667 144.424 160.472C141.704 162.712 138.909 164.781 136.028 166.591ZM174.549 114.599C174.263 115.462 174.02 116.315 173.704 117.129L172.788 119.545L172.341 120.741L171.85 121.92C171.522 122.714 171.203 123.513 170.895 124.315C169.121 128.732 167.012 133.007 164.586 137.102C162.171 141.197 159.372 145.034 156.382 148.634C154.905 150.453 153.296 152.14 151.714 153.826L149.242 156.243C148.43 157.055 147.542 157.779 146.701 158.546C145.996 159.159 145.286 159.758 144.57 160.348C147.228 158.165 149.753 155.827 152.133 153.345C148.69 156.914 144.944 160.179 140.937 163.103C139.945 163.794 138.986 164.536 137.956 165.187L134.846 167.169L131.56 169.036C130.442 169.656 129.262 170.208 128.08 170.812C128.927 170.313 129.784 169.832 130.651 169.368C131.629 168.825 132.655 168.183 133.657 167.596C134.666 167.02 135.584 166.388 136.346 165.859C137.109 165.331 137.707 164.892 138.018 164.609C137.573 164.91 137.121 165.2 136.671 165.494C137.155 165.174 137.637 164.85 138.115 164.521C138.094 164.543 138.052 164.578 138.018 164.609C148.489 157.458 157.409 148.06 164.092 137.347C170.806 126.644 175.174 114.569 176.985 102.29C176.592 107.215 175.69 111.148 174.549 114.599ZM160.084 39.8415C162.966 44.195 165.458 48.7952 167.529 53.5881C167.769 54.1139 167.995 54.6474 168.218 55.1819C172.971 66.8232 175.134 79.3112 174.817 91.6134C174.898 87.5427 174.627 83.4739 174.176 79.4395C173.666 74.7903 172.722 70.1966 171.471 65.7035C169.018 56.6933 165.032 48.1534 159.973 40.3683C160.437 41.01 160.927 41.7054 161.434 42.4429C161.976 43.2062 162.484 43.9934 162.957 44.802L162.345 43.7398L161.685 42.7063L160.366 40.6413C159.467 39.2773 158.493 37.9632 157.555 36.6261C156.538 35.3484 155.574 34.0285 154.515 32.7843C153.715 31.8715 152.947 30.9281 152.135 30.0268C155.001 33.0487 157.691 36.2909 160.084 39.8415ZM92.7993 1.10357C94.2045 1.17828 95.6124 1.31525 97.0204 1.42061C98.1736 1.51735 99.3211 1.68784 100.457 1.81619C100.798 1.83055 101.158 1.85354 101.61 1.9043C102.061 1.96656 102.601 2.08246 103.305 2.24337C108.543 3.1169 113.322 4.43007 116.715 5.78633C123.226 8.2508 129.284 11.3168 134.779 14.8578C140.276 18.3922 145.209 22.4121 149.382 26.8027C151.306 28.8898 150.744 28.4349 149.684 27.4215L151.276 29.1111C150.571 28.408 149.878 27.6954 149.163 27.0077L146.959 25.0059C147.495 25.4752 148.796 26.5987 149.684 27.4215C142.607 20.2005 134.334 14.2046 125.379 9.79384C116.418 5.38501 106.768 2.66194 97.122 1.57482C98.6717 1.74722 99.4322 1.78554 100.156 1.80469C99.1171 1.68305 98.075 1.51639 97.0204 1.42061C95.6038 1.3277 94.1901 1.20127 92.784 1.1323L88.6079 1.03365C89.991 1.03269 91.3923 1.071 92.7993 1.10357Z" fill="url(#paint2_linear_319_2)"/>
<path d="M111.052 176.899L111.46 176.78C111.033 176.895 110.612 177.021 110.182 177.13C110.473 177.057 110.765 176.986 111.052 176.899ZM153.657 139.986C157.714 134.635 161.298 128.24 163.586 122.732L163.558 122.738C157.753 136.456 148.337 148.273 136.586 156.974C138.672 155.524 140.722 154.022 142.733 152.469C145.318 149.768 149.642 145.376 153.657 139.986ZM33.8594 155.977C40.7288 162.118 49.013 167.463 58.2339 171.063C61.8295 172.417 65.4989 173.603 69.2517 174.438C71.1136 174.919 73.0149 175.215 74.9018 175.569C75.8472 175.737 76.805 175.829 77.7551 175.964C78.7072 176.087 79.6574 176.227 80.6161 176.282C76.2878 175.803 71.991 175.084 67.8082 173.945C63.6283 172.81 59.5308 171.407 55.5779 169.684C51.6455 167.933 47.839 165.913 44.1856 163.636C40.5593 161.33 37.1207 158.754 33.8594 155.977ZM118.652 166.926L116.527 167.76L114.356 168.484C112.919 169.001 111.438 169.388 109.96 169.799C111.445 169.425 112.94 169.077 114.389 168.598L116.575 167.929L118.711 167.149C118.629 167.107 118.142 167.201 118.652 166.926ZM93.5629 172.374C92.4519 172.468 91.3351 172.46 90.2163 172.471C89.0976 172.485 87.977 172.509 86.8554 172.435L88.3649 172.577C88.8265 172.606 89.2422 172.642 89.6052 172.685C90.928 172.572 92.2412 172.54 93.5629 172.374ZM49.2716 162.071C50.556 162.825 51.92 163.489 53.2734 164.221C53.6124 164.407 54.2273 164.618 54.9984 164.9C53.35 164.192 51.7705 163.315 50.1652 162.5C49.3703 162.078 48.605 161.605 47.8253 161.164C47.0475 160.72 46.2727 160.276 45.5371 159.78L46.4345 160.38L47.3703 160.939L49.2716 162.071Z" fill="url(#paint3_linear_319_2)"/>
<path d="M36.4945 119.332L34 109.146H36.737L38.4555 116.421L40.5551 109.146H42.7516L44.8373 116.421L46.5696 109.146H49.3067L46.8121 119.332H43.3198L41.6429 114.024L39.9868 119.332H36.4945ZM54.886 119.47C51.8094 119.47 49.5991 117.384 49.5991 114.239C49.5991 111.072 51.8095 109 54.886 109C57.9695 109 60.18 111.072 60.18 114.239C60.18 117.385 57.9695 119.47 54.886 119.47ZM54.886 117.073C56.4243 117.073 57.5745 115.985 57.5745 114.239C57.5745 112.492 56.4243 111.398 54.886 111.398C53.3546 111.398 52.2182 112.492 52.2182 114.239C52.2182 115.985 53.3546 117.073 54.886 117.073ZM73.6658 119.332H71.0258L70.3605 112.153L68.2056 119.332H66.4594L64.3044 112.118L63.6323 119.332H60.9784L61.8722 109.146H65.7318L67.3256 114.349L68.9401 109.146H72.7859L73.6658 119.332ZM81.338 111.439H77.7902V113.102H80.9499V115.375H77.7902V117.017H81.338V119.332H75.1503V109.146H81.338V111.439ZM90.0008 109.146H92.6408V119.332H89.5019L85.6146 112.721V119.332H82.9745V109.146H86.0788L90.0009 115.721L90.0008 109.146ZM101.423 119.47C99.1916 119.47 97.3763 118.396 97.0921 116.352L99.8291 115.728C99.9053 116.837 100.598 117.357 101.534 117.357C102.213 117.357 102.629 117.031 102.629 116.449C102.629 115.687 101.652 115.403 100.515 115.015C99.0808 114.537 97.4732 113.941 97.4732 112.063C97.4732 110.164 99.0115 109 101.208 109C102.996 109 104.943 109.707 105.366 111.813L102.829 112.437C102.684 111.515 102.199 111.113 101.381 111.113C100.654 111.113 100.141 111.398 100.141 111.994C100.141 112.562 101.056 112.79 102.102 113.13C103.564 113.615 105.366 114.28 105.366 116.297C105.366 118.535 103.481 119.47 101.423 119.47ZM113.648 119.332L112.989 117.447H108.915L108.264 119.332H105.582L109.331 109.146H112.58L116.329 119.332H113.648ZM109.67 115.271H112.234L110.952 111.585L109.67 115.271ZM123.509 111.439H119.823V113.102H122.982V115.375H119.823V119.332H117.183V109.146H123.509L123.509 111.439ZM130.911 111.439H127.363V113.102H130.523V115.375H127.363V117.017H130.911V119.332H124.723V109.146H130.911V111.439ZM138.832 109.146V111.439H136.532V119.332H133.92V111.439H131.612V109.146H138.832ZM148.036 109.146L144.682 114.46V119.331H142.042V114.502L138.667 109.145H141.564L143.352 112.153L145.153 109.145H148.036L148.036 109.146Z" fill="url(#paint4_linear_319_2)"/>
<path d="M45.5222 136.464H45.0333V137.747H45.5222C45.5499 137.747 45.5684 137.766 45.5684 137.794V138.139C45.5684 138.167 45.5499 138.185 45.5222 138.185H44.0463C44.0185 138.185 44 138.167 44 138.139V137.794C44 137.766 44.0185 137.747 44.0463 137.747H44.5352V136.464H44.0463C44.0185 136.464 44 136.446 44 136.418V136.072C44 136.045 44.0185 136.026 44.0463 136.026H45.5222C45.5499 136.026 45.5684 136.045 45.5684 136.072V136.418C45.5684 136.446 45.5499 136.464 45.5222 136.464ZM50.1785 136.026C50.2124 136.026 50.2232 136.048 50.2155 136.079L49.6665 138.148C49.6603 138.173 49.631 138.185 49.6063 138.185H49.1791C49.1544 138.185 49.1344 138.173 49.1267 138.148L48.7473 136.859L48.3664 138.148C48.3586 138.173 48.3401 138.185 48.3155 138.185H47.8867C47.862 138.185 47.8343 138.173 47.8281 138.148L47.2853 136.079C47.276 136.046 47.2883 136.026 47.3223 136.026H47.7448C47.7695 136.026 47.7911 136.035 47.7973 136.063L48.1289 137.522L48.5052 136.063C48.5098 136.046 48.519 136.037 48.5298 136.031C48.536 136.028 48.5453 136.026 48.5545 136.026H48.9401C48.9493 136.026 48.9586 136.028 48.9647 136.031C48.9755 136.037 48.9848 136.046 48.9894 136.063L49.3657 137.522L49.7019 136.063C49.7081 136.035 49.7297 136.026 49.7544 136.026H50.1785ZM52.1812 136.464H51.6923V137.747H52.1812C52.209 137.747 52.2275 137.766 52.2275 137.794V138.139C52.2275 138.167 52.209 138.185 52.1812 138.185H50.7053C50.6775 138.185 50.659 138.167 50.659 138.139V137.794C50.659 137.766 50.6775 137.747 50.7053 137.747H51.1942V136.464H50.7053C50.6775 136.464 50.659 136.446 50.659 136.418V136.072C50.659 136.045 50.6775 136.026 50.7053 136.026H52.1812C52.209 136.026 52.2275 136.045 52.2275 136.072V136.418C52.2275 136.446 52.209 136.464 52.1812 136.464ZM53.4761 136.879C53.8817 136.955 54.3089 137.097 54.3089 137.57C54.3089 138.031 54.0313 138.232 53.4869 138.232C52.9795 138.232 52.7296 138.059 52.6911 137.627C52.688 137.596 52.7065 137.576 52.7343 137.576H53.1059C53.1337 137.576 53.1445 137.593 53.1522 137.618C53.1923 137.729 53.291 137.783 53.4869 137.783C53.6935 137.783 53.8215 137.724 53.8215 137.587C53.8215 137.444 53.7753 137.366 53.4761 137.308C53.0936 137.232 52.7235 137.073 52.7235 136.638C52.7235 136.241 52.9656 136 53.4761 136C53.931 136 54.2025 136.168 54.2441 136.585C54.2472 136.615 54.2287 136.64 54.2009 136.64H53.857C53.8292 136.64 53.8184 136.618 53.8107 136.594C53.7814 136.504 53.6843 136.444 53.4838 136.444C53.3003 136.444 53.2077 136.524 53.2077 136.638C53.2077 136.731 53.2015 136.827 53.4761 136.879ZM56.5877 136.026C56.6154 136.026 56.6339 136.045 56.6339 136.072V138.139C56.6339 138.167 56.6154 138.185 56.5877 138.185H56.1805C56.1528 138.185 56.1343 138.167 56.1343 138.139V137.317H55.3092V138.139C55.3092 138.167 55.2907 138.185 55.2629 138.185H54.8573C54.8295 138.185 54.811 138.167 54.811 138.139V136.072C54.811 136.045 54.8295 136.026 54.8573 136.026H55.2629C55.2907 136.026 55.3092 136.045 55.3092 136.072V136.879H56.1343V136.072C56.1343 136.045 56.1528 136.026 56.1805 136.026H56.5877ZM61.2825 136.026C61.3164 136.026 61.3272 136.048 61.3195 136.079L60.7705 138.148C60.7643 138.173 60.735 138.185 60.7103 138.185H60.2832C60.2585 138.185 60.2384 138.173 60.2307 138.148L59.8513 136.859L59.4704 138.148C59.4627 138.173 59.4442 138.185 59.4195 138.185H58.9908C58.9661 138.185 58.9383 138.173 58.9322 138.148L58.3893 136.079C58.38 136.046 58.3924 136.026 58.4263 136.026H58.8489C58.8736 136.026 58.8951 136.035 58.9013 136.063L59.2329 137.522L59.6092 136.063C59.6138 136.046 59.6231 136.037 59.6339 136.031C59.64 136.028 59.6493 136.026 59.6586 136.026H60.0441C60.0534 136.026 60.0626 136.028 60.0688 136.031C60.0796 136.037 60.0888 136.046 60.0935 136.063L60.4698 137.522L60.806 136.063C60.8121 136.035 60.8337 136.026 60.8584 136.026H61.2825ZM63.2853 136.464H62.7964V137.747H63.2853C63.313 137.747 63.3315 137.766 63.3315 137.794V138.139C63.3315 138.167 63.313 138.185 63.2853 138.185H61.8093C61.7816 138.185 61.7631 138.167 61.7631 138.139V137.794C61.7631 137.766 61.7816 137.747 61.8093 137.747H62.2982V136.464H61.8093C61.7816 136.464 61.7631 136.446 61.7631 136.418V136.072C61.7631 136.045 61.7816 136.026 61.8093 136.026H63.2853C63.313 136.026 63.3315 136.045 63.3315 136.072V136.418C63.3315 136.446 63.313 136.464 63.2853 136.464ZM65.433 136.026C65.4607 136.026 65.4792 136.045 65.4792 136.072V136.418C65.4792 136.446 65.4607 136.464 65.433 136.464H64.8747V138.139C64.8747 138.167 64.8562 138.185 64.8284 138.185H64.4228C64.395 138.185 64.3765 138.167 64.3765 138.139V136.464H63.8182C63.7905 136.464 63.772 136.446 63.772 136.418V136.072C63.772 136.045 63.7905 136.026 63.8182 136.026H65.433ZM67.7349 136.026C67.7627 136.026 67.7812 136.045 67.7812 136.072V138.139C67.7812 138.167 67.7627 138.185 67.7349 138.185H67.3277C67.3 138.185 67.2815 138.167 67.2815 138.139V137.317H66.4564V138.139C66.4564 138.167 66.4379 138.185 66.4101 138.185H66.0045C65.9768 138.185 65.9582 138.167 65.9582 138.139V136.072C65.9582 136.045 65.9768 136.026 66.0045 136.026H66.4101C66.4379 136.026 66.4564 136.045 66.4564 136.072V136.879H67.2815V136.072C67.2815 136.045 67.3 136.026 67.3277 136.026H67.7349ZM71.5013 138.133C71.5121 138.164 71.4982 138.185 71.4643 138.185H71.0417C71.0171 138.185 70.9986 138.176 70.9893 138.148L70.8906 137.849H70.1179L70.0192 138.148C70.0115 138.176 69.9915 138.185 69.9668 138.185H69.5442C69.5103 138.185 69.4964 138.164 69.5072 138.133L70.2629 136.063C70.2722 136.039 70.2907 136.026 70.3153 136.026H70.6855C70.7102 136.026 70.7364 136.039 70.7456 136.063L71.5013 138.133ZM70.2583 137.428H70.7518L70.505 136.682L70.2583 137.428ZM73.3375 137.747C73.3653 137.747 73.3838 137.766 73.3838 137.794V138.139C73.3838 138.167 73.3653 138.185 73.3375 138.185H72.0004C71.9726 138.185 71.9541 138.167 71.9541 138.139V136.072C71.9541 136.045 71.9726 136.026 72.0004 136.026H72.406C72.4337 136.026 72.4523 136.045 72.4523 136.072V137.747H73.3375ZM75.2539 137.747C75.2816 137.747 75.3001 137.766 75.3001 137.794V138.139C75.3001 138.167 75.2816 138.185 75.2539 138.185H73.9168C73.889 138.185 73.8705 138.167 73.8705 138.139V136.072C73.8705 136.045 73.889 136.026 73.9168 136.026H74.3224C74.3501 136.026 74.3686 136.045 74.3686 136.072V137.747H75.2539ZM79.3025 136.026C79.3303 136.026 79.3488 136.045 79.3488 136.072V138.139C79.3488 138.167 79.3303 138.185 79.3025 138.185H78.8969C78.8692 138.185 78.8507 138.167 78.8507 138.139V137.115L78.4435 138.147C78.4342 138.171 78.4127 138.185 78.388 138.185H78.024C77.9993 138.185 77.9762 138.171 77.967 138.147L77.5583 137.11V138.139C77.5583 138.167 77.5398 138.185 77.512 138.185H77.1064C77.0786 138.185 77.0601 138.167 77.0601 138.139V136.072C77.0601 136.045 77.0786 136.026 77.1064 136.026H77.5613C77.586 136.026 77.6076 136.035 77.6169 136.057L78.206 137.609L78.7936 136.057C78.8028 136.035 78.8244 136.026 78.8491 136.026H79.3025ZM81.8065 136.026C81.8435 136.026 81.8574 136.046 81.8373 136.082L81.0647 137.349V138.139C81.0647 138.167 81.0462 138.185 81.0184 138.185H80.6128C80.585 138.185 80.5665 138.167 80.5665 138.139V137.343L79.7923 136.082C79.7707 136.046 79.7862 136.026 79.8232 136.026H80.2812C80.3059 136.026 80.3229 136.035 80.3367 136.057L80.8148 136.853L81.2945 136.057C81.3083 136.035 81.3253 136.026 81.35 136.026H81.8065ZM85.795 136.026C85.8228 136.026 85.8413 136.045 85.8413 136.072V138.139C85.8413 138.167 85.8228 138.185 85.795 138.185H85.3894C85.3616 138.185 85.3431 138.167 85.3431 138.139V137.115L84.936 138.147C84.9267 138.171 84.9051 138.185 84.8805 138.185H84.5165C84.4918 138.185 84.4687 138.171 84.4594 138.147L84.0507 137.11V138.139C84.0507 138.167 84.0322 138.185 84.0045 138.185H83.5989C83.5711 138.185 83.5526 138.167 83.5526 138.139V136.072C83.5526 136.045 83.5711 136.026 83.5989 136.026H84.0538C84.0785 136.026 84.1001 136.035 84.1093 136.057L84.6985 137.609L85.2861 136.057C85.2953 136.035 85.3169 136.026 85.3416 136.026H85.795ZM87.9196 136.464H87.4307V137.747H87.9196C87.9473 137.747 87.9658 137.766 87.9658 137.794V138.139C87.9658 138.167 87.9473 138.185 87.9196 138.185H86.4437C86.4159 138.185 86.3974 138.167 86.3974 138.139V137.794C86.3974 137.766 86.4159 137.747 86.4437 137.747H86.9325V136.464H86.4437C86.4159 136.464 86.3974 136.446 86.3974 136.418V136.072C86.3974 136.045 86.4159 136.026 86.4437 136.026H87.9196C87.9473 136.026 87.9658 136.045 87.9658 136.072V136.418C87.9658 136.446 87.9473 136.464 87.9196 136.464ZM90.5145 136.942C90.5423 136.942 90.5608 136.961 90.5608 136.989V137.209C90.5608 137.761 90.2045 138.225 89.5907 138.225C88.9723 138.225 88.4603 137.729 88.4603 137.11C88.4603 136.49 88.9615 136.002 89.5799 136.002C89.8807 136.002 90.1567 136.125 90.3449 136.321C90.3665 136.344 90.3618 136.364 90.3433 136.386L90.0935 136.655C90.0765 136.677 90.0503 136.677 90.0287 136.659C89.91 136.557 89.7604 136.49 89.5753 136.49C89.2391 136.49 88.9754 136.759 88.9754 137.11C88.9754 137.462 89.2237 137.737 89.5861 137.737C89.9023 137.737 90.0596 137.553 90.0688 137.356H89.6C89.5722 137.356 89.5537 137.337 89.5537 137.309V136.989C89.5537 136.961 89.5722 136.942 89.6 136.942H90.5145ZM92.8704 136.026C92.8982 136.026 92.9167 136.045 92.9167 136.072V138.139C92.9167 138.167 92.8982 138.185 92.8704 138.185H92.4633C92.4355 138.185 92.417 138.167 92.417 138.139V137.317H91.5919V138.139C91.5919 138.167 91.5734 138.185 91.5457 138.185H91.14C91.1123 138.185 91.0938 138.167 91.0938 138.139V136.072C91.0938 136.045 91.1123 136.026 91.14 136.026H91.5457C91.5734 136.026 91.5919 136.045 91.5919 136.072V136.879H92.417V136.072C92.417 136.045 92.4355 136.026 92.4633 136.026H92.8704ZM95.0567 136.026C95.0844 136.026 95.103 136.045 95.103 136.072V136.418C95.103 136.446 95.0844 136.464 95.0567 136.464H94.4984V138.139C94.4984 138.167 94.4799 138.185 94.4521 138.185H94.0465C94.0188 138.185 94.0003 138.167 94.0003 138.139V136.464H93.442C93.4142 136.464 93.3957 136.446 93.3957 136.418V136.072C93.3957 136.045 93.4142 136.026 93.442 136.026H95.0567ZM98.4005 136.026C98.4283 136.026 98.4468 136.045 98.4468 136.072V136.418C98.4468 136.446 98.4283 136.464 98.4005 136.464H97.8423V138.139C97.8423 138.167 97.8238 138.185 97.796 138.185H97.3904C97.3626 138.185 97.3441 138.167 97.3441 138.139V136.464H96.7858C96.7581 136.464 96.7396 136.446 96.7396 136.418V136.072C96.7396 136.045 96.7581 136.026 96.7858 136.026H98.4005ZM99.9761 138.225C99.3654 138.225 98.8641 137.732 98.8641 137.115C98.8641 136.495 99.3654 136.002 99.9761 136.002C100.588 136.002 101.091 136.495 101.091 137.115C101.091 137.732 100.588 138.225 99.9761 138.225ZM99.9761 137.743C100.32 137.743 100.59 137.467 100.59 137.115C100.59 136.76 100.32 136.484 99.9761 136.484C99.6353 136.484 99.3654 136.76 99.3654 137.115C99.3654 137.467 99.6353 137.743 99.9761 137.743ZM104.015 137.033C104.295 137.086 104.453 137.269 104.453 137.564C104.453 137.982 104.236 138.185 103.662 138.185H102.905C102.877 138.185 102.859 138.167 102.859 138.139V136.072C102.859 136.045 102.877 136.026 102.905 136.026H103.698C104.147 136.026 104.341 136.275 104.341 136.588C104.341 136.814 104.225 136.976 104.015 137.033ZM103.878 136.652C103.878 136.51 103.813 136.464 103.652 136.464H103.357V136.856H103.645C103.818 136.856 103.878 136.802 103.878 136.652ZM103.682 137.747C103.878 137.747 103.957 137.667 103.957 137.508C103.957 137.329 103.866 137.266 103.678 137.266H103.357V137.747H103.682ZM106.339 137.747C106.367 137.747 106.385 137.766 106.385 137.794V138.139C106.385 138.167 106.367 138.185 106.339 138.185H104.986C104.959 138.185 104.94 138.167 104.94 138.139V136.072C104.94 136.045 104.959 136.026 104.986 136.026H106.336C106.364 136.026 106.382 136.045 106.382 136.072V136.418C106.382 136.446 106.364 136.464 106.336 136.464H105.438V136.879H106.26C106.288 136.879 106.307 136.898 106.307 136.925V137.271C106.307 137.299 106.288 137.317 106.26 137.317H105.438V137.747H106.339ZM109.745 136.026C109.772 136.026 109.791 136.045 109.791 136.072V136.418C109.791 136.446 109.772 136.464 109.745 136.464H109.186V138.139C109.186 138.167 109.168 138.185 109.14 138.185H108.734C108.707 138.185 108.688 138.167 108.688 138.139V136.464H108.13C108.102 136.464 108.084 136.446 108.084 136.418V136.072C108.084 136.045 108.102 136.026 108.13 136.026H109.745ZM111.564 137.419L111.94 138.131C111.957 138.164 111.939 138.185 111.903 138.185H111.505C111.479 138.185 111.464 138.175 111.451 138.15L111.113 137.484H111.076H110.768V138.139C110.768 138.167 110.749 138.185 110.722 138.185H110.316C110.288 138.185 110.27 138.167 110.27 138.139V136.072C110.27 136.045 110.288 136.026 110.316 136.026H111.076C111.757 136.026 111.96 136.268 111.96 136.754C111.96 137.097 111.86 137.317 111.564 137.419ZM110.768 136.464V137.046H111.112C111.357 137.046 111.484 136.993 111.484 136.754C111.484 136.518 111.357 136.464 111.112 136.464H110.768ZM113.846 137.747C113.873 137.747 113.892 137.766 113.892 137.794V138.139C113.892 138.167 113.873 138.185 113.846 138.185H112.493C112.465 138.185 112.447 138.167 112.447 138.139V136.072C112.447 136.045 112.465 136.026 112.493 136.026H113.843C113.87 136.026 113.889 136.045 113.889 136.072V136.418C113.889 136.446 113.87 136.464 113.843 136.464H112.945V136.879H113.767C113.795 136.879 113.813 136.898 113.813 136.925V137.271C113.813 137.299 113.795 137.317 113.767 137.317H112.945V137.747H113.846ZM116.285 138.133C116.296 138.164 116.282 138.185 116.248 138.185H115.825C115.801 138.185 115.782 138.176 115.773 138.148L115.674 137.849H114.901L114.803 138.148C114.795 138.176 114.775 138.185 114.75 138.185H114.328C114.294 138.185 114.28 138.164 114.291 138.133L115.046 136.063C115.056 136.039 115.074 136.026 115.099 136.026H115.469C115.494 136.026 115.52 136.039 115.529 136.063L116.285 138.133ZM115.042 137.428H115.535L115.289 136.682L115.042 137.428ZM118.283 136.026C118.311 136.026 118.329 136.045 118.329 136.072V136.418C118.329 136.446 118.311 136.464 118.283 136.464H117.725V138.139C117.725 138.167 117.706 138.185 117.678 138.185H117.273C117.245 138.185 117.227 138.167 117.227 138.139V136.464H116.668C116.64 136.464 116.622 136.446 116.622 136.418V136.072C116.622 136.045 116.64 136.026 116.668 136.026H118.283ZM120.207 137.747C120.235 137.747 120.253 137.766 120.253 137.794V138.139C120.253 138.167 120.235 138.185 120.207 138.185H118.855C118.827 138.185 118.808 138.167 118.808 138.139V136.072C118.808 136.045 118.827 136.026 118.855 136.026H120.204C120.232 136.026 120.25 136.045 120.25 136.072V136.418C120.25 136.446 120.232 136.464 120.204 136.464H119.306V136.879H120.128C120.156 136.879 120.175 136.898 120.175 136.925V137.271C120.175 137.299 120.156 137.317 120.128 137.317H119.306V137.747H120.207ZM121.499 136.026C122.236 136.026 122.632 136.507 122.632 137.106C122.632 137.704 122.236 138.185 121.499 138.185H120.84C120.813 138.185 120.794 138.167 120.794 138.139V136.072C120.794 136.045 120.813 136.026 120.84 136.026H121.499ZM121.499 137.747C121.917 137.747 122.126 137.516 122.126 137.106C122.126 136.696 121.917 136.464 121.499 136.464H121.292V137.747H121.499ZM125.679 137.419L126.055 138.131C126.072 138.164 126.053 138.185 126.018 138.185H125.62C125.594 138.185 125.578 138.175 125.566 138.15L125.228 137.484H125.191H124.883V138.139C124.883 138.167 124.864 138.185 124.836 138.185H124.431C124.403 138.185 124.385 138.167 124.385 138.139V136.072C124.385 136.045 124.403 136.026 124.431 136.026H125.191C125.871 136.026 126.075 136.268 126.075 136.754C126.075 137.097 125.975 137.317 125.679 137.419ZM124.883 136.464V137.046H125.227C125.472 137.046 125.598 136.993 125.598 136.754C125.598 136.518 125.472 136.464 125.227 136.464H124.883ZM128.045 136.464H127.556V137.747H128.045C128.073 137.747 128.092 137.766 128.092 137.794V138.139C128.092 138.167 128.073 138.185 128.045 138.185H126.569C126.542 138.185 126.523 138.167 126.523 138.139V137.794C126.523 137.766 126.542 137.747 126.569 137.747H127.058V136.464H126.569C126.542 136.464 126.523 136.446 126.523 136.418V136.072C126.523 136.045 126.542 136.026 126.569 136.026H128.045C128.073 136.026 128.092 136.045 128.092 136.072V136.418C128.092 136.446 128.073 136.464 128.045 136.464ZM130.64 136.942C130.668 136.942 130.686 136.961 130.686 136.989V137.209C130.686 137.761 130.33 138.225 129.716 138.225C129.098 138.225 128.586 137.729 128.586 137.11C128.586 136.49 129.087 136.002 129.706 136.002C130.006 136.002 130.282 136.125 130.471 136.321C130.492 136.344 130.488 136.364 130.469 136.386L130.219 136.655C130.202 136.677 130.176 136.677 130.154 136.659C130.036 136.557 129.886 136.49 129.701 136.49C129.365 136.49 129.101 136.759 129.101 137.11C129.101 137.462 129.349 137.737 129.712 137.737C130.028 137.737 130.185 137.553 130.195 137.356H129.726C129.698 137.356 129.679 137.337 129.679 137.309V136.989C129.679 136.961 129.698 136.942 129.726 136.942H130.64ZM132.996 136.026C133.024 136.026 133.042 136.045 133.042 136.072V138.139C133.042 138.167 133.024 138.185 132.996 138.185H132.589C132.561 138.185 132.543 138.167 132.543 138.139V137.317H131.718V138.139C131.718 138.167 131.699 138.185 131.671 138.185H131.266C131.238 138.185 131.219 138.167 131.219 138.139V136.072C131.219 136.045 131.238 136.026 131.266 136.026H131.671C131.699 136.026 131.718 136.045 131.718 136.072V136.879H132.543V136.072C132.543 136.045 132.561 136.026 132.589 136.026H132.996ZM135.182 136.026C135.21 136.026 135.229 136.045 135.229 136.072V136.418C135.229 136.446 135.21 136.464 135.182 136.464H134.624V138.139C134.624 138.167 134.606 138.185 134.578 138.185H134.172C134.144 138.185 134.126 138.167 134.126 138.139V136.464H133.568C133.54 136.464 133.521 136.446 133.521 136.418V136.072C133.521 136.045 133.54 136.026 133.568 136.026H135.182Z" fill="url(#paint5_linear_319_2)"/>
<path d="M116 61C116 46.0876 103.912 34 89 34C74.0876 34 62 46.0876 62 61C62 75.4526 73.4307 87.3431 87.7518 88H87.6861H88.3431C88.5401 88 88.7372 88 89 88C89.1971 88 89.3942 88 89.6569 88C89.9854 88 90.3139 88 90.5766 87.9343C104.766 87.146 116 75.3212 116 61ZM63.1168 61C63.1168 48.9781 71.3285 38.8613 82.4307 35.9708C82.0365 36.4964 81.6423 37.219 81.3796 38.1387C75.927 39.1898 74.0876 43.2628 74.0219 43.3942L75.0073 43.854C75.0073 43.854 75.4672 42.8686 76.5182 41.8175C77.7664 40.5693 79.2774 39.7153 81.1168 39.3212C81.0511 39.9124 80.9854 40.635 80.9854 41.3577C80.9854 41.4891 80.9854 41.5547 80.9854 41.6204C78.4891 42.3431 77.5693 44.1825 77.5693 44.2482L78.5547 44.708C78.5547 44.708 79.2774 43.3285 81.0511 42.7372C81.1825 44.3139 81.5766 45.8905 82.2993 47.4672C81.3139 48.1241 79.146 49.8978 79.146 53.708C79.146 56.1387 79.7372 57.9781 80.1971 59.4234C80.6569 60.7372 80.9854 61.7883 80.7883 62.8394C80.4599 64.9416 79.2117 65.2701 79.146 65.2701V66.3212C79.5401 66.3869 80.5912 66.6496 80.9854 67.2409C81.3796 67.8321 80.9854 68.6861 80.9854 68.6861L81.1825 69.4088L82.0365 69.9343L81.9708 70.6569L82.365 71.2482L83.219 71.5109C83.1533 72.1679 83.219 73.1533 84.073 74.0073C84.7299 74.6642 85.6496 75.1241 86.8321 75.1241C88.3431 75.1241 90.3796 74.3358 93.073 72.1679C93.5328 72.7591 94.3212 74.3358 94.3212 78.2774C94.3212 83.2701 90.2482 86.2263 89.4599 86.7518C89.3285 86.7518 89.1314 86.7518 89 86.7518C74.7445 86.8832 63.1168 75.2555 63.1168 61ZM94.5182 69.5401C90.1168 73.8102 86.7007 75.1241 84.8613 73.2847C84.073 72.4963 84.4015 71.3796 84.4015 71.3139L84.0073 70.5912L83.0876 70.3942L83.1533 69.8029L82.8905 69.2774L82.1679 68.8175C82.2993 68.292 82.4307 67.438 81.9708 66.7153C81.6423 66.2555 81.1168 65.8613 80.5912 65.6642C81.1168 65.2044 81.6423 64.4161 81.8394 63.1022C82.1022 61.7883 81.6423 60.5401 81.1825 59.1606C80.7226 57.7153 80.1971 56.073 80.1971 53.7737C80.1971 50.6204 81.9051 49.1095 82.7591 48.5182C84.5328 51.9343 87.8175 55.8102 93.4672 61.3942C96.1606 64.0876 98.0657 67.5036 98.854 71.2482C99.5766 74.7299 99.3796 78.146 98.1971 80.9708C96.8832 84.1898 94.5183 86.2263 91.4307 86.7518C93.073 85.3066 95.3723 82.4818 95.3723 78.4088C95.3723 74.2044 94.4526 72.365 93.8613 71.5766C94.3212 71.1825 94.7153 70.7883 95.1752 70.3285L94.5182 69.5401ZM95.7664 86.0292C97.2117 84.9124 98.3942 83.3358 99.2482 81.4307C100.496 78.4088 100.759 74.7299 99.9051 71.0511C99.0511 67.1095 97.0803 63.4964 94.1898 60.6715C84.7956 51.146 82.0365 46.8759 82.0365 41.3577C82.0365 36.562 84.3358 35.5766 84.6642 35.4453C86.0438 35.1825 87.4891 35.0511 89 35.0511C103.255 35.0511 114.883 46.6788 114.883 60.9343C114.883 72.9562 106.803 83.0073 95.7664 86.0292ZM87.8175 58.0438C87.8175 58.1095 87.8175 59.5547 86.2409 60.3431C85.7153 60.6058 85.1898 60.6715 84.7299 60.6715C83.8102 60.6715 83.1533 60.3431 83.0876 60.3431L83.5474 59.3577C83.5474 59.3577 84.7299 59.8832 85.781 59.3577C86.7664 58.8978 86.7007 58.0438 86.7007 58.0438H87.8175ZM96.8832 57.9781C94.2555 55.4818 91.562 52.854 90.1825 49.8978C86.7007 42.4088 93.1387 38.1387 93.2044 38.073L93.5328 38.5328L93.8613 38.9927C93.5985 39.1241 88.146 42.8029 91.2993 49.438C92.6131 52.1971 95.2409 54.7591 97.7372 57.1898C101.613 60.9343 105.62 64.8102 104.964 69.6715L103.715 69.5401C104.307 65.2044 100.693 61.6569 96.8832 57.9781ZM94.3212 47.2044C94.7153 44.7737 95.8978 43.3942 96.8175 42.7372C97.8686 42.0146 98.7883 41.8175 98.854 41.8175L98.9197 42.3431L98.9854 42.8686C98.854 42.8686 95.9635 43.3942 95.3723 47.3358C95.1095 49.2409 95.9635 51.3431 97.5401 52.3285C98.1971 52.7226 99.4453 53.3139 100.891 52.3942C101.81 51.8029 102.27 51.0146 102.204 50.0292C102.139 49.1095 101.613 48.2555 100.825 47.8613C100.365 47.6642 99.708 47.5328 98.854 48.0584L98.2628 47.1387C99.2482 46.4818 100.365 46.3504 101.35 46.8102C102.467 47.3358 103.255 48.5839 103.321 49.8978C103.387 51.2117 102.73 52.4599 101.482 53.2482C100.825 53.708 100.036 53.9051 99.3139 53.9051C98.5255 53.9051 97.7372 53.6423 96.9489 53.1825C95.0438 52.0657 93.9927 49.5693 94.3212 47.2044ZM71.5912 61.9197C70.3431 61.9197 69.1606 61.3285 68.3723 60.2774C66.9927 58.5037 66.7956 55.7445 67.8467 53.6423C69.0292 51.4745 70.5401 50.5547 71.6569 50.2263C72.9051 49.8321 73.8248 50.0292 73.8905 50.0292L73.8248 50.5547L73.6934 51.146C73.562 51.146 70.6715 50.6861 68.8321 54.1679C67.9124 55.8759 68.1095 58.1752 69.2263 59.6204C69.6861 60.2117 70.7372 61.1971 72.3796 60.8029C73.4307 60.5401 74.1533 59.9489 74.4161 59.0292C74.6788 58.1752 74.4161 57.1241 73.8248 56.5328C73.4964 56.2044 72.8394 55.8102 71.9197 56.073L71.5912 55.0219C72.7737 54.6934 73.8248 54.9562 74.6131 55.7445C75.4672 56.5985 75.8613 58.0438 75.4672 59.292C75.073 60.5401 74.0876 61.5255 72.6423 61.854C72.2482 61.9197 71.9197 61.9197 71.5912 61.9197ZM76.5182 71.4453C76.5839 73.0219 75.7299 74.5985 74.4161 75.2555C73.9562 75.5182 73.4964 75.5839 73.0365 75.5839C72.4453 75.5839 71.854 75.3869 71.3942 74.9927C70.6058 74.4015 70.2117 73.5474 70.3431 72.6277C70.4745 71.708 71.0657 70.9854 71.854 70.6569C72.5766 70.3942 73.365 70.5255 73.9562 71.0511L73.2336 71.9051C72.9051 71.6423 72.5766 71.5766 72.2482 71.708C71.854 71.8394 71.4599 72.2993 71.3942 72.8248C71.3285 73.1533 71.3942 73.6788 71.9854 74.1387C72.708 74.7299 73.4964 74.4672 73.8248 74.2701C74.8102 73.7445 75.4015 72.6277 75.3358 71.4453C75.2044 69.0803 73.4964 68.6204 73.4964 68.6204L73.7591 67.5693C73.9562 67.7007 76.3212 68.3577 76.5182 71.4453ZM108.774 71.3139L107.92 70.6569C112.781 64.1533 109.234 57.0584 109.234 56.927L110.219 56.4015C110.285 56.4672 111.204 58.3723 111.533 61.1314C111.73 63.8248 111.533 67.635 108.774 71.3139ZM107.788 64.0219L106.737 63.6934C107.657 60.7372 106.343 59.5547 106.277 59.4891L107 58.635C107.066 58.7664 108.971 60.3431 107.788 64.0219ZM105.555 77.292L106.672 77.3577C106.672 77.4891 106.474 79.9197 102.73 81.1022L102.401 80.0511C105.358 79.1314 105.555 77.3577 105.555 77.292ZM80.3285 76.635L81.1825 75.9781C81.1825 75.9781 83.4161 78.6715 86.3723 78.4088L86.438 79.5255C86.2409 79.5255 86.1095 79.5255 85.9124 79.5255C82.6934 79.5255 80.3942 76.7664 80.3285 76.635ZM86.8978 82.4817L86.9635 83.5985C86.7007 83.5985 86.438 83.5985 86.2409 83.5985C80.3285 83.5985 77.1095 78.8686 76.9781 78.6715L77.8321 78.0803C77.8978 78.146 81.1168 82.8759 86.8978 82.4817Z" fill="#F54B93"/>
</g>

</svg>
